<?xml version="1.0" encoding="UTF-8"?>
<svg xmlns:xlink="http://www.w3.org/1999/xlink" aria-roledescription="flowchart-v2" role="graphics-document document" viewBox="0 0 3100.375 603" style="max-width: 100%;" class="flowchart" xmlns="http://www.w3.org/2000/svg" width="100%" id="mermaid-svg-23" height="100%"><style>#mermaid-svg-23{font-family:"trebuchet ms",verdana,arial,sans-serif;font-size:16px;fill:#ccc;}@keyframes edge-animation-frame{from{stroke-dashoffset:0;}}@keyframes dash{to{stroke-dashoffset:0;}}#mermaid-svg-23 .edge-animation-slow{stroke-dasharray:9,5!important;stroke-dashoffset:900;animation:dash 50s linear infinite;stroke-linecap:round;}#mermaid-svg-23 .edge-animation-fast{stroke-dasharray:9,5!important;stroke-dashoffset:900;animation:dash 20s linear infinite;stroke-linecap:round;}#mermaid-svg-23 .error-icon{fill:#a44141;}#mermaid-svg-23 .error-text{fill:#ddd;stroke:#ddd;}#mermaid-svg-23 .edge-thickness-normal{stroke-width:1px;}#mermaid-svg-23 .edge-thickness-thick{stroke-width:3.5px;}#mermaid-svg-23 .edge-pattern-solid{stroke-dasharray:0;}#mermaid-svg-23 .edge-thickness-invisible{stroke-width:0;fill:none;}#mermaid-svg-23 .edge-pattern-dashed{stroke-dasharray:3;}#mermaid-svg-23 .edge-pattern-dotted{stroke-dasharray:2;}#mermaid-svg-23 .marker{fill:lightgrey;stroke:lightgrey;}#mermaid-svg-23 .marker.cross{stroke:lightgrey;}#mermaid-svg-23 svg{font-family:"trebuchet ms",verdana,arial,sans-serif;font-size:16px;}#mermaid-svg-23 p{margin:0;}#mermaid-svg-23 .label{font-family:"trebuchet ms",verdana,arial,sans-serif;color:#ccc;}#mermaid-svg-23 .cluster-label text{fill:#F9FFFE;}#mermaid-svg-23 .cluster-label span{color:#F9FFFE;}#mermaid-svg-23 .cluster-label span p{background-color:transparent;}#mermaid-svg-23 .label text,#mermaid-svg-23 span{fill:#ccc;color:#ccc;}#mermaid-svg-23 .node rect,#mermaid-svg-23 .node circle,#mermaid-svg-23 .node ellipse,#mermaid-svg-23 .node polygon,#mermaid-svg-23 .node path{fill:#1f2020;stroke:#ccc;stroke-width:1px;}#mermaid-svg-23 .rough-node .label text,#mermaid-svg-23 .node .label text,#mermaid-svg-23 .image-shape .label,#mermaid-svg-23 .icon-shape .label{text-anchor:middle;}#mermaid-svg-23 .node .katex path{fill:#000;stroke:#000;stroke-width:1px;}#mermaid-svg-23 .rough-node .label,#mermaid-svg-23 .node .label,#mermaid-svg-23 .image-shape .label,#mermaid-svg-23 .icon-shape .label{text-align:center;}#mermaid-svg-23 .node.clickable{cursor:pointer;}#mermaid-svg-23 .root .anchor path{fill:lightgrey!important;stroke-width:0;stroke:lightgrey;}#mermaid-svg-23 .arrowheadPath{fill:lightgrey;}#mermaid-svg-23 .edgePath .path{stroke:lightgrey;stroke-width:2.0px;}#mermaid-svg-23 .flowchart-link{stroke:lightgrey;fill:none;}#mermaid-svg-23 .edgeLabel{background-color:hsl(0, 0%, 34.4117647059%);text-align:center;}#mermaid-svg-23 .edgeLabel p{background-color:hsl(0, 0%, 34.4117647059%);}#mermaid-svg-23 .edgeLabel rect{opacity:0.5;background-color:hsl(0, 0%, 34.4117647059%);fill:hsl(0, 0%, 34.4117647059%);}#mermaid-svg-23 .labelBkg{background-color:rgba(87.75, 87.75, 87.75, 0.5);}#mermaid-svg-23 .cluster rect{fill:hsl(180, 1.5873015873%, 28.3529411765%);stroke:rgba(255, 255, 255, 0.25);stroke-width:1px;}#mermaid-svg-23 .cluster text{fill:#F9FFFE;}#mermaid-svg-23 .cluster span{color:#F9FFFE;}#mermaid-svg-23 div.mermaidTooltip{position:absolute;text-align:center;max-width:200px;padding:2px;font-family:"trebuchet ms",verdana,arial,sans-serif;font-size:12px;background:hsl(20, 1.5873015873%, 12.3529411765%);border:1px solid rgba(255, 255, 255, 0.25);border-radius:2px;pointer-events:none;z-index:100;}#mermaid-svg-23 .flowchartTitleText{text-anchor:middle;font-size:18px;fill:#ccc;}#mermaid-svg-23 rect.text{fill:none;stroke-width:0;}#mermaid-svg-23 .icon-shape,#mermaid-svg-23 .image-shape{background-color:hsl(0, 0%, 34.4117647059%);text-align:center;}#mermaid-svg-23 .icon-shape p,#mermaid-svg-23 .image-shape p{background-color:hsl(0, 0%, 34.4117647059%);padding:2px;}#mermaid-svg-23 .icon-shape rect,#mermaid-svg-23 .image-shape rect{opacity:0.5;background-color:hsl(0, 0%, 34.4117647059%);fill:hsl(0, 0%, 34.4117647059%);}#mermaid-svg-23 :root{--mermaid-font-family:"trebuchet ms",verdana,arial,sans-serif;}</style><g><marker orient="auto" markerHeight="8" markerWidth="8" markerUnits="userSpaceOnUse" refY="5" refX="5" viewBox="0 0 10 10" class="marker flowchart-v2" id="mermaid-svg-23_flowchart-v2-pointEnd"><path style="stroke-width: 1; stroke-dasharray: 1, 0;" class="arrowMarkerPath" d="M 0 0 L 10 5 L 0 10 z"></path></marker><marker orient="auto" markerHeight="8" markerWidth="8" markerUnits="userSpaceOnUse" refY="5" refX="4.5" viewBox="0 0 10 10" class="marker flowchart-v2" id="mermaid-svg-23_flowchart-v2-pointStart"><path style="stroke-width: 1; stroke-dasharray: 1, 0;" class="arrowMarkerPath" d="M 0 5 L 10 10 L 10 0 z"></path></marker><marker orient="auto" markerHeight="11" markerWidth="11" markerUnits="userSpaceOnUse" refY="5" refX="11" viewBox="0 0 10 10" class="marker flowchart-v2" id="mermaid-svg-23_flowchart-v2-circleEnd"><circle style="stroke-width: 1; stroke-dasharray: 1, 0;" class="arrowMarkerPath" r="5" cy="5" cx="5"></circle></marker><marker orient="auto" markerHeight="11" markerWidth="11" markerUnits="userSpaceOnUse" refY="5" refX="-1" viewBox="0 0 10 10" class="marker flowchart-v2" id="mermaid-svg-23_flowchart-v2-circleStart"><circle style="stroke-width: 1; stroke-dasharray: 1, 0;" class="arrowMarkerPath" r="5" cy="5" cx="5"></circle></marker><marker orient="auto" markerHeight="11" markerWidth="11" markerUnits="userSpaceOnUse" refY="5.2" refX="12" viewBox="0 0 11 11" class="marker cross flowchart-v2" id="mermaid-svg-23_flowchart-v2-crossEnd"><path style="stroke-width: 2; stroke-dasharray: 1, 0;" class="arrowMarkerPath" d="M 1,1 l 9,9 M 10,1 l -9,9"></path></marker><marker orient="auto" markerHeight="11" markerWidth="11" markerUnits="userSpaceOnUse" refY="5.2" refX="-1" viewBox="0 0 11 11" class="marker cross flowchart-v2" id="mermaid-svg-23_flowchart-v2-crossStart"><path style="stroke-width: 2; stroke-dasharray: 1, 0;" class="arrowMarkerPath" d="M 1,1 l 9,9 M 10,1 l -9,9"></path></marker><g class="root"><g class="clusters"></g><g class="edgePaths"><path marker-end="url(#mermaid-svg-23_flowchart-v2-pointEnd)" style="" class="edge-thickness-normal edge-pattern-solid edge-thickness-normal edge-pattern-solid flowchart-link" id="L_A_B_0" d="M191.496,344L208.413,331.667C225.33,319.333,259.165,294.667,279.583,282.333C300,270,307,270,310.5,270L314,270"></path><path marker-end="url(#mermaid-svg-23_flowchart-v2-pointEnd)" style="" class="edge-thickness-normal edge-pattern-solid edge-thickness-normal edge-pattern-solid flowchart-link" id="L_B_C_0" d="M578,270L582.167,270C586.333,270,594.667,270,602.417,270.07C610.167,270.141,617.334,270.281,620.917,270.351L624.501,270.422"></path><path marker-end="url(#mermaid-svg-23_flowchart-v2-pointEnd)" style="" class="edge-thickness-normal edge-pattern-solid edge-thickness-normal edge-pattern-solid flowchart-link" id="L_C_D_0" d="M808.611,270.5L812.694,270.417C816.778,270.333,824.944,270.167,832.528,270.083C840.111,270,847.111,270,850.611,270L854.111,270"></path><path marker-end="url(#mermaid-svg-23_flowchart-v2-pointEnd)" style="" class="edge-thickness-normal edge-pattern-solid edge-thickness-normal edge-pattern-solid flowchart-link" id="L_D_E_0" d="M1020.546,243L1040.902,226.167C1061.257,209.333,1101.969,175.667,1125.825,158.833C1149.681,142,1156.681,142,1160.181,142L1163.681,142"></path><path marker-end="url(#mermaid-svg-23_flowchart-v2-pointEnd)" style="" class="edge-thickness-normal edge-pattern-solid edge-thickness-normal edge-pattern-solid flowchart-link" id="L_D_F_0" d="M1117.681,270L1121.847,270C1126.014,270,1134.347,270,1142.014,270C1149.681,270,1156.681,270,1160.181,270L1163.681,270"></path><path marker-end="url(#mermaid-svg-23_flowchart-v2-pointEnd)" style="" class="edge-thickness-normal edge-pattern-solid edge-thickness-normal edge-pattern-solid flowchart-link" id="L_D_G_0" d="M1017.747,297L1038.569,315.833C1059.392,334.667,1101.036,372.333,1125.358,391.167C1149.681,410,1156.681,410,1160.181,410L1163.681,410"></path><path marker-end="url(#mermaid-svg-23_flowchart-v2-pointEnd)" style="" class="edge-thickness-normal edge-pattern-solid edge-thickness-normal edge-pattern-solid flowchart-link" id="L_E_H_0" d="M1427.681,142L1431.847,142C1436.014,142,1444.347,142,1462.42,157.504C1480.493,173.007,1508.306,204.015,1522.212,219.519L1536.118,235.022"></path><path marker-end="url(#mermaid-svg-23_flowchart-v2-pointEnd)" style="" class="edge-thickness-normal edge-pattern-solid edge-thickness-normal edge-pattern-solid flowchart-link" id="L_F_H_0" d="M1427.681,270L1431.847,270C1436.014,270,1444.347,270,1452.015,269.841C1459.682,269.683,1466.683,269.365,1470.184,269.207L1473.685,269.048"></path><path marker-end="url(#mermaid-svg-23_flowchart-v2-pointEnd)" style="" class="edge-thickness-normal edge-pattern-solid edge-thickness-normal edge-pattern-solid flowchart-link" id="L_G_H_0" d="M1427.681,410L1431.847,410C1436.014,410,1444.347,410,1463.074,390.864C1481.801,371.728,1510.921,333.456,1525.481,314.319L1540.041,295.183"></path><path marker-end="url(#mermaid-svg-23_flowchart-v2-pointEnd)" style="" class="edge-thickness-normal edge-pattern-solid edge-thickness-normal edge-pattern-solid flowchart-link" id="L_H_I_0" d="M1648.333,265L1652.5,265C1656.667,265,1665,265,1672.667,265C1680.333,265,1687.333,265,1690.833,265L1694.333,265"></path><path marker-end="url(#mermaid-svg-23_flowchart-v2-pointEnd)" style="" class="edge-thickness-normal edge-pattern-solid edge-thickness-normal edge-pattern-solid flowchart-link" id="L_I_J_0" d="M1958.333,265L1962.5,265C1966.667,265,1975,265,1982.667,265C1990.333,265,1997.333,265,2000.833,265L2004.333,265"></path><path marker-end="url(#mermaid-svg-23_flowchart-v2-pointEnd)" style="" class="edge-thickness-normal edge-pattern-solid edge-thickness-normal edge-pattern-solid flowchart-link" id="L_J_K_0" d="M2268.333,265L2272.5,265C2276.667,265,2285,265,2292.667,265C2300.333,265,2307.333,265,2310.833,265L2314.333,265"></path><path marker-end="url(#mermaid-svg-23_flowchart-v2-pointEnd)" style="" class="edge-thickness-normal edge-pattern-solid edge-thickness-normal edge-pattern-solid flowchart-link" id="L_K_L_0" d="M2578.333,265L2582.5,265C2586.667,265,2595,265,2602.667,265C2610.333,265,2617.333,265,2620.833,265L2624.333,265"></path><path marker-end="url(#mermaid-svg-23_flowchart-v2-pointEnd)" style="" class="edge-thickness-normal edge-pattern-solid edge-thickness-normal edge-pattern-solid flowchart-link" id="L_L_M_0" d="M2717.436,238L2732.425,204.5C2747.415,171,2777.395,104,2795.886,70.726C2814.378,37.452,2821.381,37.904,2824.882,38.129L2828.383,38.355"></path><path marker-end="url(#mermaid-svg-23_flowchart-v2-pointEnd)" style="" class="edge-thickness-normal edge-pattern-solid edge-thickness-normal edge-pattern-solid flowchart-link" id="L_L_N_0" d="M2782.375,265L2786.542,265C2790.708,265,2799.042,265,2823.272,282.155C2847.502,299.309,2887.629,333.619,2907.693,350.774L2927.757,367.928"></path><path marker-end="url(#mermaid-svg-23_flowchart-v2-pointEnd)" style="" class="edge-thickness-normal edge-pattern-solid edge-thickness-normal edge-pattern-solid flowchart-link" id="L_L_O_0" d="M2716.329,292L2731.503,329.333C2746.677,366.667,2777.026,441.333,2803.988,482.621C2830.951,523.909,2854.526,531.819,2866.314,535.773L2878.102,539.728"></path><path marker-end="url(#mermaid-svg-23_flowchart-v2-pointEnd)" style="" class="edge-thickness-normal edge-pattern-solid edge-thickness-normal edge-pattern-solid flowchart-link" id="L_M_A_0" d="M2832.375,55.387L2828.208,55.656C2824.042,55.925,2815.708,56.462,2794.538,56.731C2773.368,57,2739.361,57,2705.354,57C2671.347,57,2637.34,57,2594.503,57C2551.667,57,2500,57,2448.333,57C2396.667,57,2345,57,2293.333,57C2241.667,57,2190,57,2138.333,57C2086.667,57,2035,57,1983.333,57C1931.667,57,1880,57,1828.333,57C1776.667,57,1725,57,1680.779,57C1636.558,57,1599.782,57,1563.007,57C1526.231,57,1489.456,57,1445.235,57C1401.014,57,1349.347,57,1297.681,57C1246.014,57,1194.347,57,1142.716,57C1091.086,57,1039.491,57,987.896,57C936.301,57,884.706,57,839.733,57C794.759,57,756.407,57,718.056,57C679.704,57,641.352,57,596.343,57C551.333,57,499.667,57,448,57C396.333,57,344.667,57,296.377,104.231C248.087,151.463,203.174,245.925,180.717,293.156L158.261,340.388"></path><path marker-end="url(#mermaid-svg-23_flowchart-v2-pointEnd)" style="" class="edge-thickness-normal edge-pattern-solid edge-thickness-normal edge-pattern-solid flowchart-link" id="L_N_A_0" d="M2919.876,424.528L2901.126,436.44C2882.375,448.352,2844.875,472.176,2809.122,484.088C2773.368,496,2739.361,496,2705.354,496C2671.347,496,2637.34,496,2594.503,496C2551.667,496,2500,496,2448.333,496C2396.667,496,2345,496,2293.333,496C2241.667,496,2190,496,2138.333,496C2086.667,496,2035,496,1983.333,496C1931.667,496,1880,496,1828.333,496C1776.667,496,1725,496,1680.779,496C1636.558,496,1599.782,496,1563.007,496C1526.231,496,1489.456,496,1445.235,496C1401.014,496,1349.347,496,1297.681,496C1246.014,496,1194.347,496,1142.716,496C1091.086,496,1039.491,496,987.896,496C936.301,496,884.706,496,839.733,496C794.759,496,756.407,496,718.056,496C679.704,496,641.352,496,596.343,496C551.333,496,499.667,496,448,496C396.333,496,344.667,496,302.455,484.059C260.243,472.119,227.485,448.238,211.107,436.297L194.728,424.356"></path><path marker-end="url(#mermaid-svg-23_flowchart-v2-pointEnd)" style="" class="edge-thickness-normal edge-pattern-solid edge-thickness-normal edge-pattern-solid flowchart-link" id="L_O_A_0" d="M2871.389,568L2860.72,568C2850.051,568,2828.713,568,2801.041,568C2773.368,568,2739.361,568,2705.354,568C2671.347,568,2637.34,568,2594.503,568C2551.667,568,2500,568,2448.333,568C2396.667,568,2345,568,2293.333,568C2241.667,568,2190,568,2138.333,568C2086.667,568,2035,568,1983.333,568C1931.667,568,1880,568,1828.333,568C1776.667,568,1725,568,1680.779,568C1636.558,568,1599.782,568,1563.007,568C1526.231,568,1489.456,568,1445.235,568C1401.014,568,1349.347,568,1297.681,568C1246.014,568,1194.347,568,1142.716,568C1091.086,568,1039.491,568,987.896,568C936.301,568,884.706,568,839.733,568C794.759,568,756.407,568,718.056,568C679.704,568,641.352,568,596.343,568C551.333,568,499.667,568,448,568C396.333,568,344.667,568,298.874,544.178C253.082,520.355,213.163,472.711,193.204,448.888L173.245,425.066"></path></g><g class="edgeLabels"><g class="edgeLabel"><g transform="translate(0, 0)" class="label"><foreignObject height="0" width="0"><div style="display: table-cell; white-space: nowrap; line-height: 1.5; max-width: 200px; text-align: center;" class="labelBkg" xmlns="http://www.w3.org/1999/xhtml"><span class="edgeLabel"></span></div></foreignObject></g></g><g class="edgeLabel"><g transform="translate(0, 0)" class="label"><foreignObject height="0" width="0"><div style="display: table-cell; white-space: nowrap; line-height: 1.5; max-width: 200px; text-align: center;" class="labelBkg" xmlns="http://www.w3.org/1999/xhtml"><span class="edgeLabel"></span></div></foreignObject></g></g><g class="edgeLabel"><g transform="translate(0, 0)" class="label"><foreignObject height="0" width="0"><div style="display: table-cell; white-space: nowrap; line-height: 1.5; max-width: 200px; text-align: center;" class="labelBkg" xmlns="http://www.w3.org/1999/xhtml"><span class="edgeLabel"></span></div></foreignObject></g></g><g class="edgeLabel"><g transform="translate(0, 0)" class="label"><foreignObject height="0" width="0"><div style="display: table-cell; white-space: nowrap; line-height: 1.5; max-width: 200px; text-align: center;" class="labelBkg" xmlns="http://www.w3.org/1999/xhtml"><span class="edgeLabel"></span></div></foreignObject></g></g><g class="edgeLabel"><g transform="translate(0, 0)" class="label"><foreignObject height="0" width="0"><div style="display: table-cell; white-space: nowrap; line-height: 1.5; max-width: 200px; text-align: center;" class="labelBkg" xmlns="http://www.w3.org/1999/xhtml"><span class="edgeLabel"></span></div></foreignObject></g></g><g class="edgeLabel"><g transform="translate(0, 0)" class="label"><foreignObject height="0" width="0"><div style="display: table-cell; white-space: nowrap; line-height: 1.5; max-width: 200px; text-align: center;" class="labelBkg" xmlns="http://www.w3.org/1999/xhtml"><span class="edgeLabel"></span></div></foreignObject></g></g><g class="edgeLabel"><g transform="translate(0, 0)" class="label"><foreignObject height="0" width="0"><div style="display: table-cell; white-space: nowrap; line-height: 1.5; max-width: 200px; text-align: center;" class="labelBkg" xmlns="http://www.w3.org/1999/xhtml"><span class="edgeLabel"></span></div></foreignObject></g></g><g class="edgeLabel"><g transform="translate(0, 0)" class="label"><foreignObject height="0" width="0"><div style="display: table-cell; white-space: nowrap; line-height: 1.5; max-width: 200px; text-align: center;" class="labelBkg" xmlns="http://www.w3.org/1999/xhtml"><span class="edgeLabel"></span></div></foreignObject></g></g><g class="edgeLabel"><g transform="translate(0, 0)" class="label"><foreignObject height="0" width="0"><div style="display: table-cell; white-space: nowrap; line-height: 1.5; max-width: 200px; text-align: center;" class="labelBkg" xmlns="http://www.w3.org/1999/xhtml"><span class="edgeLabel"></span></div></foreignObject></g></g><g class="edgeLabel"><g transform="translate(0, 0)" class="label"><foreignObject height="0" width="0"><div style="display: table-cell; white-space: nowrap; line-height: 1.5; max-width: 200px; text-align: center;" class="labelBkg" xmlns="http://www.w3.org/1999/xhtml"><span class="edgeLabel"></span></div></foreignObject></g></g><g class="edgeLabel"><g transform="translate(0, 0)" class="label"><foreignObject height="0" width="0"><div style="display: table-cell; white-space: nowrap; line-height: 1.5; max-width: 200px; text-align: center;" class="labelBkg" xmlns="http://www.w3.org/1999/xhtml"><span class="edgeLabel"></span></div></foreignObject></g></g><g class="edgeLabel"><g transform="translate(0, 0)" class="label"><foreignObject height="0" width="0"><div style="display: table-cell; white-space: nowrap; line-height: 1.5; max-width: 200px; text-align: center;" class="labelBkg" xmlns="http://www.w3.org/1999/xhtml"><span class="edgeLabel"></span></div></foreignObject></g></g><g class="edgeLabel"><g transform="translate(0, 0)" class="label"><foreignObject height="0" width="0"><div style="display: table-cell; white-space: nowrap; line-height: 1.5; max-width: 200px; text-align: center;" class="labelBkg" xmlns="http://www.w3.org/1999/xhtml"><span class="edgeLabel"></span></div></foreignObject></g></g><g class="edgeLabel"><g transform="translate(0, 0)" class="label"><foreignObject height="0" width="0"><div style="display: table-cell; white-space: nowrap; line-height: 1.5; max-width: 200px; text-align: center;" class="labelBkg" xmlns="http://www.w3.org/1999/xhtml"><span class="edgeLabel"></span></div></foreignObject></g></g><g class="edgeLabel"><g transform="translate(0, 0)" class="label"><foreignObject height="0" width="0"><div style="display: table-cell; white-space: nowrap; line-height: 1.5; max-width: 200px; text-align: center;" class="labelBkg" xmlns="http://www.w3.org/1999/xhtml"><span class="edgeLabel"></span></div></foreignObject></g></g><g class="edgeLabel"><g transform="translate(0, 0)" class="label"><foreignObject height="0" width="0"><div style="display: table-cell; white-space: nowrap; line-height: 1.5; max-width: 200px; text-align: center;" class="labelBkg" xmlns="http://www.w3.org/1999/xhtml"><span class="edgeLabel"></span></div></foreignObject></g></g><g class="edgeLabel"><g transform="translate(0, 0)" class="label"><foreignObject height="0" width="0"><div style="display: table-cell; white-space: nowrap; line-height: 1.5; max-width: 200px; text-align: center;" class="labelBkg" xmlns="http://www.w3.org/1999/xhtml"><span class="edgeLabel"></span></div></foreignObject></g></g><g class="edgeLabel"><g transform="translate(0, 0)" class="label"><foreignObject height="0" width="0"><div style="display: table-cell; white-space: nowrap; line-height: 1.5; max-width: 200px; text-align: center;" class="labelBkg" xmlns="http://www.w3.org/1999/xhtml"><span class="edgeLabel"></span></div></foreignObject></g></g><g class="edgeLabel"><g transform="translate(0, 0)" class="label"><foreignObject height="0" width="0"><div style="display: table-cell; white-space: nowrap; line-height: 1.5; max-width: 200px; text-align: center;" class="labelBkg" xmlns="http://www.w3.org/1999/xhtml"><span class="edgeLabel"></span></div></foreignObject></g></g></g><g class="nodes"><g transform="translate(138, 383)" id="flowchart-A-0" class="node default"><rect height="78" width="260" y="-39" x="-130" style="" class="basic label-container"></rect><g transform="translate(-100, -24)" style="" class="label"><rect></rect><foreignObject height="48" width="200"><div style="display: table; white-space: break-spaces; line-height: 1.5; max-width: 200px; text-align: center; width: 200px;" xmlns="http://www.w3.org/1999/xhtml"><span class="nodeLabel"><p>User Interface\nWeb Application</p></span></div></foreignObject></g></g><g transform="translate(448, 270)" id="flowchart-B-1" class="node default"><rect height="78" width="260" y="-39" x="-130" style="" class="basic label-container"></rect><g transform="translate(-100, -24)" style="" class="label"><rect></rect><foreignObject height="48" width="200"><div style="display: table; white-space: break-spaces; line-height: 1.5; max-width: 200px; text-align: center; width: 200px;" xmlns="http://www.w3.org/1999/xhtml"><span class="nodeLabel"><p>Image Upload\nor Measurement Input</p></span></div></foreignObject></g></g><g transform="translate(718.0555572509766, 270)" id="flowchart-C-3" class="node default"><polygon transform="translate(-90.05555725097656,90.05555725097656)" class="label-container" points="90.05555725097656,0 180.11111450195312,-90.05555725097656 90.05555725097656,-180.11111450195312 0,-90.05555725097656"></polygon><g transform="translate(-63.05555725097656, -12)" style="" class="label"><rect></rect><foreignObject height="24" width="126.11111450195312"><div style="display: table-cell; white-space: nowrap; line-height: 1.5; max-width: 200px; text-align: center;" xmlns="http://www.w3.org/1999/xhtml"><span class="nodeLabel"><p>Processing Engine</p></span></div></foreignObject></g></g><g transform="translate(987.8958435058594, 270)" id="flowchart-D-5" class="node default"><rect height="54" width="259.56944274902344" y="-27" x="-129.78472137451172" style="" class="basic label-container"></rect><g transform="translate(-99.78472137451172, -12)" style="" class="label"><rect></rect><foreignObject height="24" width="199.56944274902344"><div style="display: table-cell; white-space: nowrap; line-height: 1.5; max-width: 200px; text-align: center;" xmlns="http://www.w3.org/1999/xhtml"><span class="nodeLabel"><p>Feature Extraction\nModule</p></span></div></foreignObject></g></g><g transform="translate(1297.6805725097656, 142)" id="flowchart-E-7" class="node default"><rect height="78" width="260" y="-39" x="-130" style="" class="basic label-container"></rect><g transform="translate(-100, -24)" style="" class="label"><rect></rect><foreignObject height="48" width="200"><div style="display: table; white-space: break-spaces; line-height: 1.5; max-width: 200px; text-align: center; width: 200px;" xmlns="http://www.w3.org/1999/xhtml"><span class="nodeLabel"><p>Color Analysis\nHSV Thresholding</p></span></div></foreignObject></g></g><g transform="translate(1297.6805725097656, 270)" id="flowchart-F-9" class="node default"><rect height="78" width="260" y="-39" x="-130" style="" class="basic label-container"></rect><g transform="translate(-100, -24)" style="" class="label"><rect></rect><foreignObject height="48" width="200"><div style="display: table; white-space: break-spaces; line-height: 1.5; max-width: 200px; text-align: center; width: 200px;" xmlns="http://www.w3.org/1999/xhtml"><span class="nodeLabel"><p>Size Quantification\nPixel-to-cm Conversion</p></span></div></foreignObject></g></g><g transform="translate(1297.6805725097656, 410)" id="flowchart-G-11" class="node default"><rect height="102" width="260" y="-51" x="-130" style="" class="basic label-container"></rect><g transform="translate(-100, -36)" style="" class="label"><rect></rect><foreignObject height="72" width="200"><div style="display: table; white-space: break-spaces; line-height: 1.5; max-width: 200px; text-align: center; width: 200px;" xmlns="http://www.w3.org/1999/xhtml"><span class="nodeLabel"><p>Shape Assessment\nContour Symmetry Index</p></span></div></foreignObject></g></g><g transform="translate(1563.0069580078125, 265)" id="flowchart-H-13" class="node default"><rect height="54" width="170.65277862548828" y="-27" x="-85.32638931274414" style="" class="basic label-container"></rect><g transform="translate(-55.32638931274414, -12)" style="" class="label"><rect></rect><foreignObject height="24" width="110.65277862548828"><div style="display: table-cell; white-space: nowrap; line-height: 1.5; max-width: 200px; text-align: center;" xmlns="http://www.w3.org/1999/xhtml"><span class="nodeLabel"><p>ANFIS Classifier</p></span></div></foreignObject></g></g><g transform="translate(1828.3333435058594, 265)" id="flowchart-I-19" class="node default"><rect height="78" width="260" y="-39" x="-130" style="" class="basic label-container"></rect><g transform="translate(-100, -24)" style="" class="label"><rect></rect><foreignObject height="48" width="200"><div style="display: table; white-space: break-spaces; line-height: 1.5; max-width: 200px; text-align: center; width: 200px;" xmlns="http://www.w3.org/1999/xhtml"><span class="nodeLabel"><p>Fuzzification:\nGaussian Membership Functions</p></span></div></foreignObject></g></g><g transform="translate(2138.3333435058594, 265)" id="flowchart-J-21" class="node default"><rect height="78" width="260" y="-39" x="-130" style="" class="basic label-container"></rect><g transform="translate(-100, -24)" style="" class="label"><rect></rect><foreignObject height="48" width="200"><div style="display: table; white-space: break-spaces; line-height: 1.5; max-width: 200px; text-align: center; width: 200px;" xmlns="http://www.w3.org/1999/xhtml"><span class="nodeLabel"><p>Rule Base:\n81 IF-THEN Rules</p></span></div></foreignObject></g></g><g transform="translate(2448.3333435058594, 265)" id="flowchart-K-23" class="node default"><rect height="78" width="260" y="-39" x="-130" style="" class="basic label-container"></rect><g transform="translate(-100, -24)" style="" class="label"><rect></rect><foreignObject height="48" width="200"><div style="display: table; white-space: break-spaces; line-height: 1.5; max-width: 200px; text-align: center; width: 200px;" xmlns="http://www.w3.org/1999/xhtml"><span class="nodeLabel"><p>Defuzzification:\nWeighted Average</p></span></div></foreignObject></g></g><g transform="translate(2705.354179382324, 265)" id="flowchart-L-25" class="node default"><rect height="54" width="154.04166412353516" y="-27" x="-77.02083206176758" style="" class="basic label-container"></rect><g transform="translate(-47.02083206176758, -12)" style="" class="label"><rect></rect><foreignObject height="24" width="94.04166412353516"><div style="display: table-cell; white-space: nowrap; line-height: 1.5; max-width: 200px; text-align: center;" xmlns="http://www.w3.org/1999/xhtml"><span class="nodeLabel"><p>Output Layer</p></span></div></foreignObject></g></g><g transform="translate(2962.375015258789, 47)" id="flowchart-M-27" class="node default"><rect height="78" width="260" y="-39" x="-130" style="" class="basic label-container"></rect><g transform="translate(-100, -24)" style="" class="label"><rect></rect><foreignObject height="48" width="200"><div style="display: table; white-space: break-spaces; line-height: 1.5; max-width: 200px; text-align: center; width: 200px;" xmlns="http://www.w3.org/1999/xhtml"><span class="nodeLabel"><p>Quality Grade\nClass A/B/Reject</p></span></div></foreignObject></g></g><g transform="translate(2962.375015258789, 397.5277786254883)" id="flowchart-N-29" class="node default"><rect height="54" width="184.375" y="-27" x="-92.1875" style="" class="basic label-container"></rect><g transform="translate(-62.1875, -12)" style="" class="label"><rect></rect><foreignObject height="24" width="124.375"><div style="display: table-cell; white-space: nowrap; line-height: 1.5; max-width: 200px; text-align: center;" xmlns="http://www.w3.org/1999/xhtml"><span class="nodeLabel"><p>Confidence Score</p></span></div></foreignObject></g></g><g transform="translate(2962.375015258789, 568)" id="flowchart-O-31" class="node default"><rect height="54" width="181.97222137451172" y="-27" x="-90.98611068725586" style="" class="basic label-container"></rect><g transform="translate(-60.98611068725586, -12)" style="" class="label"><rect></rect><foreignObject height="24" width="121.97222137451172"><div style="display: table-cell; white-space: nowrap; line-height: 1.5; max-width: 200px; text-align: center;" xmlns="http://www.w3.org/1999/xhtml"><span class="nodeLabel"><p>Annotated Image</p></span></div></foreignObject></g></g></g></g></g></svg>